<mxfile host="65bd71144e">
    <diagram id="Ke3-LdZd-SUT-5-_Xhcn" name="Page-1">
        <mxGraphModel dx="1411" dy="1227" grid="1" gridSize="10" guides="1" tooltips="1" connect="1" arrows="1" fold="1" page="1" pageScale="1" pageWidth="827" pageHeight="1169" math="0" shadow="0">
            <root>
                <mxCell id="0"/>
                <mxCell id="1" parent="0"/>
                <mxCell id="191" value="" style="shape=partialRectangle;html=1;whiteSpace=wrap;connectable=0;fillColor=none;top=0;left=0;bottom=0;right=0;align=left;spacingLeft=6;overflow=hidden;" parent="1" vertex="1">
                    <mxGeometry x="90" y="530" width="140" height="30" as="geometry"/>
                </mxCell>
                <mxCell id="222" value="Favorites" style="shape=table;startSize=30;container=1;collapsible=0;childLayout=tableLayout;fixedRows=1;rowLines=0;fontStyle=1;align=center;rounded=0;sketch=0;fontColor=#5C5C5C;strokeColor=#006658;fillColor=#21C0A5;" parent="1" vertex="1">
                    <mxGeometry x="1340" y="160" width="180" height="321" as="geometry"/>
                </mxCell>
                <mxCell id="223" value="" style="shape=partialRectangle;html=1;whiteSpace=wrap;collapsible=0;dropTarget=0;pointerEvents=0;fillColor=none;top=0;left=0;bottom=1;right=0;points=[[0,0.5],[1,0.5]];portConstraint=eastwest;" parent="222" vertex="1">
                    <mxGeometry y="30" width="180" height="30" as="geometry"/>
                </mxCell>
                <mxCell id="224" value="1" style="shape=partialRectangle;html=1;whiteSpace=wrap;connectable=0;fillColor=none;top=0;left=0;bottom=0;right=0;overflow=hidden;" parent="223" vertex="1">
                    <mxGeometry width="40" height="30" as="geometry"/>
                </mxCell>
                <mxCell id="225" value="id" style="shape=partialRectangle;html=1;whiteSpace=wrap;connectable=0;fillColor=none;top=0;left=0;bottom=0;right=0;align=left;spacingLeft=6;overflow=hidden;" parent="223" vertex="1">
                    <mxGeometry x="40" width="140" height="30" as="geometry"/>
                </mxCell>
                <mxCell id="226" value="" style="shape=partialRectangle;html=1;whiteSpace=wrap;collapsible=0;dropTarget=0;pointerEvents=0;fillColor=none;top=0;left=0;bottom=0;right=0;points=[[0,0.5],[1,0.5]];portConstraint=eastwest;" parent="222" vertex="1">
                    <mxGeometry y="60" width="180" height="30" as="geometry"/>
                </mxCell>
                <mxCell id="227" value="2" style="shape=partialRectangle;html=1;whiteSpace=wrap;connectable=0;fillColor=none;top=0;left=0;bottom=0;right=0;overflow=hidden;" parent="226" vertex="1">
                    <mxGeometry width="40" height="30" as="geometry"/>
                </mxCell>
                <mxCell id="228" value="post_id" style="shape=partialRectangle;html=1;whiteSpace=wrap;connectable=0;fillColor=none;top=0;left=0;bottom=0;right=0;align=left;spacingLeft=6;overflow=hidden;" parent="226" vertex="1">
                    <mxGeometry x="40" width="140" height="30" as="geometry"/>
                </mxCell>
                <mxCell id="229" value="" style="shape=partialRectangle;html=1;whiteSpace=wrap;collapsible=0;dropTarget=0;pointerEvents=0;fillColor=none;top=0;left=0;bottom=0;right=0;points=[[0,0.5],[1,0.5]];portConstraint=eastwest;" parent="222" vertex="1">
                    <mxGeometry y="90" width="180" height="30" as="geometry"/>
                </mxCell>
                <mxCell id="230" value="3" style="shape=partialRectangle;html=1;whiteSpace=wrap;connectable=0;fillColor=none;top=0;left=0;bottom=0;right=0;overflow=hidden;" parent="229" vertex="1">
                    <mxGeometry width="40" height="30" as="geometry"/>
                </mxCell>
                <mxCell id="231" value="user_id" style="shape=partialRectangle;html=1;whiteSpace=wrap;connectable=0;fillColor=none;top=0;left=0;bottom=0;right=0;align=left;spacingLeft=6;overflow=hidden;" parent="229" vertex="1">
                    <mxGeometry x="40" width="140" height="30" as="geometry"/>
                </mxCell>
                <mxCell id="232" value="4" style="shape=partialRectangle;html=1;whiteSpace=wrap;connectable=0;fillColor=none;top=0;left=0;bottom=0;right=0;overflow=hidden;" parent="1" vertex="1">
                    <mxGeometry x="1340" y="280" width="40" height="30" as="geometry"/>
                </mxCell>
                <mxCell id="239" value="update_at" style="shape=partialRectangle;html=1;whiteSpace=wrap;connectable=0;fillColor=none;top=0;left=0;bottom=0;right=0;align=left;spacingLeft=6;overflow=hidden;" parent="1" vertex="1">
                    <mxGeometry x="1380" y="310" width="140" height="30" as="geometry"/>
                </mxCell>
                <mxCell id="240" value="5" style="shape=partialRectangle;html=1;whiteSpace=wrap;connectable=0;fillColor=none;top=0;left=0;bottom=0;right=0;overflow=hidden;" parent="1" vertex="1">
                    <mxGeometry x="1340" y="310" width="40" height="30" as="geometry"/>
                </mxCell>
                <mxCell id="242" value="create_at" style="shape=partialRectangle;html=1;whiteSpace=wrap;connectable=0;fillColor=none;top=0;left=0;bottom=0;right=0;align=left;spacingLeft=6;overflow=hidden;" parent="1" vertex="1">
                    <mxGeometry x="1700" y="399" width="140" height="30" as="geometry"/>
                </mxCell>
                <mxCell id="243" value="7" style="shape=partialRectangle;html=1;whiteSpace=wrap;connectable=0;fillColor=none;top=0;left=0;bottom=0;right=0;overflow=hidden;" parent="1" vertex="1">
                    <mxGeometry x="1660" y="369" width="40" height="30" as="geometry"/>
                </mxCell>
                <mxCell id="244" value="Users" style="shape=table;startSize=30;container=1;collapsible=0;childLayout=tableLayout;fixedRows=1;rowLines=0;fontStyle=1;align=center;rounded=0;sketch=0;fontColor=#5C5C5C;strokeColor=#006658;fillColor=#21C0A5;" parent="1" vertex="1">
                    <mxGeometry x="1660" y="159" width="180" height="331" as="geometry"/>
                </mxCell>
                <mxCell id="245" value="" style="shape=partialRectangle;html=1;whiteSpace=wrap;collapsible=0;dropTarget=0;pointerEvents=0;fillColor=none;top=0;left=0;bottom=1;right=0;points=[[0,0.5],[1,0.5]];portConstraint=eastwest;" parent="244" vertex="1">
                    <mxGeometry y="30" width="180" height="30" as="geometry"/>
                </mxCell>
                <mxCell id="246" value="1" style="shape=partialRectangle;html=1;whiteSpace=wrap;connectable=0;fillColor=none;top=0;left=0;bottom=0;right=0;overflow=hidden;" parent="245" vertex="1">
                    <mxGeometry width="40" height="30" as="geometry"/>
                </mxCell>
                <mxCell id="247" value="id" style="shape=partialRectangle;html=1;whiteSpace=wrap;connectable=0;fillColor=none;top=0;left=0;bottom=0;right=0;align=left;spacingLeft=6;overflow=hidden;" parent="245" vertex="1">
                    <mxGeometry x="40" width="140" height="30" as="geometry"/>
                </mxCell>
                <mxCell id="248" value="" style="shape=partialRectangle;html=1;whiteSpace=wrap;collapsible=0;dropTarget=0;pointerEvents=0;fillColor=none;top=0;left=0;bottom=0;right=0;points=[[0,0.5],[1,0.5]];portConstraint=eastwest;" parent="244" vertex="1">
                    <mxGeometry y="60" width="180" height="30" as="geometry"/>
                </mxCell>
                <mxCell id="249" value="2" style="shape=partialRectangle;html=1;whiteSpace=wrap;connectable=0;fillColor=none;top=0;left=0;bottom=0;right=0;overflow=hidden;" parent="248" vertex="1">
                    <mxGeometry width="40" height="30" as="geometry"/>
                </mxCell>
                <mxCell id="250" value="user_name" style="shape=partialRectangle;html=1;whiteSpace=wrap;connectable=0;fillColor=none;top=0;left=0;bottom=0;right=0;align=left;spacingLeft=6;overflow=hidden;" parent="248" vertex="1">
                    <mxGeometry x="40" width="140" height="30" as="geometry"/>
                </mxCell>
                <mxCell id="251" value="" style="shape=partialRectangle;html=1;whiteSpace=wrap;collapsible=0;dropTarget=0;pointerEvents=0;fillColor=none;top=0;left=0;bottom=0;right=0;points=[[0,0.5],[1,0.5]];portConstraint=eastwest;" parent="244" vertex="1">
                    <mxGeometry y="90" width="180" height="30" as="geometry"/>
                </mxCell>
                <mxCell id="252" value="3" style="shape=partialRectangle;html=1;whiteSpace=wrap;connectable=0;fillColor=none;top=0;left=0;bottom=0;right=0;overflow=hidden;" parent="251" vertex="1">
                    <mxGeometry width="40" height="30" as="geometry"/>
                </mxCell>
                <mxCell id="253" value="user_email" style="shape=partialRectangle;html=1;whiteSpace=wrap;connectable=0;fillColor=none;top=0;left=0;bottom=0;right=0;align=left;spacingLeft=6;overflow=hidden;" parent="251" vertex="1">
                    <mxGeometry x="40" width="140" height="30" as="geometry"/>
                </mxCell>
                <mxCell id="254" value="4" style="shape=partialRectangle;html=1;whiteSpace=wrap;connectable=0;fillColor=none;top=0;left=0;bottom=0;right=0;overflow=hidden;" parent="1" vertex="1">
                    <mxGeometry x="1660" y="279" width="40" height="30" as="geometry"/>
                </mxCell>
                <mxCell id="255" value="6" style="shape=partialRectangle;html=1;whiteSpace=wrap;connectable=0;fillColor=none;top=0;left=0;bottom=0;right=0;overflow=hidden;" parent="1" vertex="1">
                    <mxGeometry x="1660" y="339" width="40" height="30" as="geometry"/>
                </mxCell>
                <mxCell id="256" value="user_password" style="shape=partialRectangle;html=1;whiteSpace=wrap;connectable=0;fillColor=none;top=0;left=0;bottom=0;right=0;align=left;spacingLeft=6;overflow=hidden;" parent="1" vertex="1">
                    <mxGeometry x="1700" y="279" width="140" height="30" as="geometry"/>
                </mxCell>
                <mxCell id="257" value="user_profile" style="shape=partialRectangle;html=1;whiteSpace=wrap;connectable=0;fillColor=none;top=0;left=0;bottom=0;right=0;align=left;spacingLeft=6;overflow=hidden;" parent="1" vertex="1">
                    <mxGeometry x="1700" y="309" width="140" height="30" as="geometry"/>
                </mxCell>
                <mxCell id="258" value="public_or_private" style="shape=partialRectangle;html=1;whiteSpace=wrap;connectable=0;fillColor=none;top=0;left=0;bottom=0;right=0;align=left;spacingLeft=6;overflow=hidden;" parent="1" vertex="1">
                    <mxGeometry x="1700" y="369" width="140" height="30" as="geometry"/>
                </mxCell>
                <mxCell id="259" value="user_image" style="shape=partialRectangle;html=1;whiteSpace=wrap;connectable=0;fillColor=none;top=0;left=0;bottom=0;right=0;align=left;spacingLeft=6;overflow=hidden;" parent="1" vertex="1">
                    <mxGeometry x="1700" y="339" width="140" height="30" as="geometry"/>
                </mxCell>
                <mxCell id="260" value="8" style="shape=partialRectangle;html=1;whiteSpace=wrap;connectable=0;fillColor=none;top=0;left=0;bottom=0;right=0;overflow=hidden;" parent="1" vertex="1">
                    <mxGeometry x="1660" y="399" width="40" height="30" as="geometry"/>
                </mxCell>
                <mxCell id="261" value="update_at" style="shape=partialRectangle;html=1;whiteSpace=wrap;connectable=0;fillColor=none;top=0;left=0;bottom=0;right=0;align=left;spacingLeft=6;overflow=hidden;" parent="1" vertex="1">
                    <mxGeometry x="1700" y="429" width="140" height="30" as="geometry"/>
                </mxCell>
                <mxCell id="262" value="5" style="shape=partialRectangle;html=1;whiteSpace=wrap;connectable=0;fillColor=none;top=0;left=0;bottom=0;right=0;overflow=hidden;" parent="1" vertex="1">
                    <mxGeometry x="1660" y="309" width="40" height="30" as="geometry"/>
                </mxCell>
                <mxCell id="263" value="9" style="shape=partialRectangle;html=1;whiteSpace=wrap;connectable=0;fillColor=none;top=0;left=0;bottom=0;right=0;overflow=hidden;" parent="1" vertex="1">
                    <mxGeometry x="1660" y="429" width="40" height="30" as="geometry"/>
                </mxCell>
                <mxCell id="264" value="create_at" style="shape=partialRectangle;html=1;whiteSpace=wrap;connectable=0;fillColor=none;top=0;left=0;bottom=0;right=0;align=left;spacingLeft=6;overflow=hidden;" parent="1" vertex="1">
                    <mxGeometry x="1380" y="280" width="140" height="30" as="geometry"/>
                </mxCell>
                <mxCell id="286" value="7" style="shape=partialRectangle;html=1;whiteSpace=wrap;connectable=0;fillColor=none;top=0;left=0;bottom=0;right=0;overflow=hidden;" parent="1" vertex="1">
                    <mxGeometry x="1020" y="369" width="40" height="30" as="geometry"/>
                </mxCell>
                <mxCell id="287" value="Posts" style="shape=table;startSize=30;container=1;collapsible=0;childLayout=tableLayout;fixedRows=1;rowLines=0;fontStyle=1;align=center;rounded=0;sketch=0;fontColor=#5C5C5C;strokeColor=#006658;fillColor=#21C0A5;" parent="1" vertex="1">
                    <mxGeometry x="1020" y="160" width="180" height="480" as="geometry"/>
                </mxCell>
                <mxCell id="288" value="" style="shape=partialRectangle;html=1;whiteSpace=wrap;collapsible=0;dropTarget=0;pointerEvents=0;fillColor=none;top=0;left=0;bottom=1;right=0;points=[[0,0.5],[1,0.5]];portConstraint=eastwest;" parent="287" vertex="1">
                    <mxGeometry y="30" width="180" height="30" as="geometry"/>
                </mxCell>
                <mxCell id="289" value="1" style="shape=partialRectangle;html=1;whiteSpace=wrap;connectable=0;fillColor=none;top=0;left=0;bottom=0;right=0;overflow=hidden;" parent="288" vertex="1">
                    <mxGeometry width="40" height="30" as="geometry"/>
                </mxCell>
                <mxCell id="290" value="id" style="shape=partialRectangle;html=1;whiteSpace=wrap;connectable=0;fillColor=none;top=0;left=0;bottom=0;right=0;align=left;spacingLeft=6;overflow=hidden;" parent="288" vertex="1">
                    <mxGeometry x="40" width="140" height="30" as="geometry"/>
                </mxCell>
                <mxCell id="291" value="" style="shape=partialRectangle;html=1;whiteSpace=wrap;collapsible=0;dropTarget=0;pointerEvents=0;fillColor=none;top=0;left=0;bottom=0;right=0;points=[[0,0.5],[1,0.5]];portConstraint=eastwest;" parent="287" vertex="1">
                    <mxGeometry y="60" width="180" height="30" as="geometry"/>
                </mxCell>
                <mxCell id="292" value="2" style="shape=partialRectangle;html=1;whiteSpace=wrap;connectable=0;fillColor=none;top=0;left=0;bottom=0;right=0;overflow=hidden;" parent="291" vertex="1">
                    <mxGeometry width="40" height="30" as="geometry"/>
                </mxCell>
                <mxCell id="293" value="user_id" style="shape=partialRectangle;html=1;whiteSpace=wrap;connectable=0;fillColor=none;top=0;left=0;bottom=0;right=0;align=left;spacingLeft=6;overflow=hidden;" parent="291" vertex="1">
                    <mxGeometry x="40" width="140" height="30" as="geometry"/>
                </mxCell>
                <mxCell id="294" value="" style="shape=partialRectangle;html=1;whiteSpace=wrap;collapsible=0;dropTarget=0;pointerEvents=0;fillColor=none;top=0;left=0;bottom=0;right=0;points=[[0,0.5],[1,0.5]];portConstraint=eastwest;" parent="287" vertex="1">
                    <mxGeometry y="90" width="180" height="30" as="geometry"/>
                </mxCell>
                <mxCell id="295" value="3" style="shape=partialRectangle;html=1;whiteSpace=wrap;connectable=0;fillColor=none;top=0;left=0;bottom=0;right=0;overflow=hidden;" parent="294" vertex="1">
                    <mxGeometry width="40" height="30" as="geometry"/>
                </mxCell>
                <mxCell id="296" value="recipe_category_id" style="shape=partialRectangle;html=1;whiteSpace=wrap;connectable=0;fillColor=none;top=0;left=0;bottom=0;right=0;align=left;spacingLeft=6;overflow=hidden;" parent="294" vertex="1">
                    <mxGeometry x="40" width="140" height="30" as="geometry"/>
                </mxCell>
                <mxCell id="297" value="4" style="shape=partialRectangle;html=1;whiteSpace=wrap;connectable=0;fillColor=none;top=0;left=0;bottom=0;right=0;overflow=hidden;" parent="1" vertex="1">
                    <mxGeometry x="1020" y="279" width="40" height="30" as="geometry"/>
                </mxCell>
                <mxCell id="298" value="6" style="shape=partialRectangle;html=1;whiteSpace=wrap;connectable=0;fillColor=none;top=0;left=0;bottom=0;right=0;overflow=hidden;" parent="1" vertex="1">
                    <mxGeometry x="1020" y="339" width="40" height="30" as="geometry"/>
                </mxCell>
                <mxCell id="299" value="post_title" style="shape=partialRectangle;html=1;whiteSpace=wrap;connectable=0;fillColor=none;top=0;left=0;bottom=0;right=0;align=left;spacingLeft=6;overflow=hidden;" parent="1" vertex="1">
                    <mxGeometry x="1060" y="304.5" width="140" height="30" as="geometry"/>
                </mxCell>
                <mxCell id="301" value="post_process" style="shape=partialRectangle;html=1;whiteSpace=wrap;connectable=0;fillColor=none;top=0;left=0;bottom=0;right=0;align=left;spacingLeft=6;overflow=hidden;" parent="1" vertex="1">
                    <mxGeometry x="1060" y="369" width="140" height="30" as="geometry"/>
                </mxCell>
                <mxCell id="302" value="post_amount" style="shape=partialRectangle;html=1;whiteSpace=wrap;connectable=0;fillColor=none;top=0;left=0;bottom=0;right=0;align=left;spacingLeft=6;overflow=hidden;" parent="1" vertex="1">
                    <mxGeometry x="1060" y="339" width="140" height="30" as="geometry"/>
                </mxCell>
                <mxCell id="303" value="8" style="shape=partialRectangle;html=1;whiteSpace=wrap;connectable=0;fillColor=none;top=0;left=0;bottom=0;right=0;overflow=hidden;" parent="1" vertex="1">
                    <mxGeometry x="1020" y="399" width="40" height="30" as="geometry"/>
                </mxCell>
                <mxCell id="304" value="post_process_image" style="shape=partialRectangle;html=1;whiteSpace=wrap;connectable=0;fillColor=none;top=0;left=0;bottom=0;right=0;align=left;spacingLeft=6;overflow=hidden;" parent="1" vertex="1">
                    <mxGeometry x="1060" y="429" width="140" height="30" as="geometry"/>
                </mxCell>
                <mxCell id="305" value="5" style="shape=partialRectangle;html=1;whiteSpace=wrap;connectable=0;fillColor=none;top=0;left=0;bottom=0;right=0;overflow=hidden;" parent="1" vertex="1">
                    <mxGeometry x="1020" y="309" width="40" height="30" as="geometry"/>
                </mxCell>
                <mxCell id="306" value="9" style="shape=partialRectangle;html=1;whiteSpace=wrap;connectable=0;fillColor=none;top=0;left=0;bottom=0;right=0;overflow=hidden;" parent="1" vertex="1">
                    <mxGeometry x="1020" y="429" width="40" height="30" as="geometry"/>
                </mxCell>
                <mxCell id="307" value="post_free_text" style="shape=partialRectangle;html=1;whiteSpace=wrap;connectable=0;fillColor=none;top=0;left=0;bottom=0;right=0;align=left;spacingLeft=6;overflow=hidden;" parent="1" vertex="1">
                    <mxGeometry x="1060" y="519" width="140" height="30" as="geometry"/>
                </mxCell>
                <mxCell id="308" value="post_tag" style="shape=partialRectangle;html=1;whiteSpace=wrap;connectable=0;fillColor=none;top=0;left=0;bottom=0;right=0;align=left;spacingLeft=6;overflow=hidden;" parent="1" vertex="1">
                    <mxGeometry x="1060" y="459" width="140" height="30" as="geometry"/>
                </mxCell>
                <mxCell id="309" value="post_text" style="shape=partialRectangle;html=1;whiteSpace=wrap;connectable=0;fillColor=none;top=0;left=0;bottom=0;right=0;align=left;spacingLeft=6;overflow=hidden;" parent="1" vertex="1">
                    <mxGeometry x="1060" y="489" width="140" height="30" as="geometry"/>
                </mxCell>
                <mxCell id="310" value="create_at" style="shape=partialRectangle;html=1;whiteSpace=wrap;connectable=0;fillColor=none;top=0;left=0;bottom=0;right=0;align=left;spacingLeft=6;overflow=hidden;" parent="1" vertex="1">
                    <mxGeometry x="1060" y="549" width="140" height="30" as="geometry"/>
                </mxCell>
                <mxCell id="311" value="post_cooking_image" style="shape=partialRectangle;html=1;whiteSpace=wrap;connectable=0;fillColor=none;top=0;left=0;bottom=0;right=0;align=left;spacingLeft=6;overflow=hidden;" parent="1" vertex="1">
                    <mxGeometry x="1060" y="399" width="140" height="30" as="geometry"/>
                </mxCell>
                <mxCell id="312" value="11" style="shape=partialRectangle;html=1;whiteSpace=wrap;connectable=0;fillColor=none;top=0;left=0;bottom=0;right=0;overflow=hidden;" parent="1" vertex="1">
                    <mxGeometry x="1020" y="489" width="40" height="30" as="geometry"/>
                </mxCell>
                <mxCell id="313" value="10" style="shape=partialRectangle;html=1;whiteSpace=wrap;connectable=0;fillColor=none;top=0;left=0;bottom=0;right=0;overflow=hidden;" parent="1" vertex="1">
                    <mxGeometry x="1020" y="459" width="40" height="30" as="geometry"/>
                </mxCell>
                <mxCell id="314" value="12" style="shape=partialRectangle;html=1;whiteSpace=wrap;connectable=0;fillColor=none;top=0;left=0;bottom=0;right=0;overflow=hidden;" parent="1" vertex="1">
                    <mxGeometry x="1020" y="519" width="40" height="30" as="geometry"/>
                </mxCell>
                <mxCell id="315" value="13" style="shape=partialRectangle;html=1;whiteSpace=wrap;connectable=0;fillColor=none;top=0;left=0;bottom=0;right=0;overflow=hidden;" parent="1" vertex="1">
                    <mxGeometry x="1020" y="549" width="40" height="30" as="geometry"/>
                </mxCell>
                <mxCell id="317" value="14" style="shape=partialRectangle;html=1;whiteSpace=wrap;connectable=0;fillColor=none;top=0;left=0;bottom=0;right=0;overflow=hidden;" parent="1" vertex="1">
                    <mxGeometry x="1020" y="579" width="40" height="30" as="geometry"/>
                </mxCell>
                <mxCell id="362" value="Post_recipe_categories" style="shape=table;startSize=30;container=1;collapsible=0;childLayout=tableLayout;fixedRows=1;rowLines=0;fontStyle=1;align=center;rounded=0;sketch=0;fontColor=#5C5C5C;strokeColor=#006658;fillColor=#21C0A5;" parent="1" vertex="1">
                    <mxGeometry x="700" y="160" width="180" height="321" as="geometry"/>
                </mxCell>
                <mxCell id="363" value="" style="shape=partialRectangle;html=1;whiteSpace=wrap;collapsible=0;dropTarget=0;pointerEvents=0;fillColor=none;top=0;left=0;bottom=1;right=0;points=[[0,0.5],[1,0.5]];portConstraint=eastwest;" parent="362" vertex="1">
                    <mxGeometry y="30" width="180" height="30" as="geometry"/>
                </mxCell>
                <mxCell id="364" value="1" style="shape=partialRectangle;html=1;whiteSpace=wrap;connectable=0;fillColor=none;top=0;left=0;bottom=0;right=0;overflow=hidden;" parent="363" vertex="1">
                    <mxGeometry width="40" height="30" as="geometry"/>
                </mxCell>
                <mxCell id="365" value="id" style="shape=partialRectangle;html=1;whiteSpace=wrap;connectable=0;fillColor=none;top=0;left=0;bottom=0;right=0;align=left;spacingLeft=6;overflow=hidden;" parent="363" vertex="1">
                    <mxGeometry x="40" width="140" height="30" as="geometry"/>
                </mxCell>
                <mxCell id="366" value="" style="shape=partialRectangle;html=1;whiteSpace=wrap;collapsible=0;dropTarget=0;pointerEvents=0;fillColor=none;top=0;left=0;bottom=0;right=0;points=[[0,0.5],[1,0.5]];portConstraint=eastwest;" parent="362" vertex="1">
                    <mxGeometry y="60" width="180" height="30" as="geometry"/>
                </mxCell>
                <mxCell id="367" value="2" style="shape=partialRectangle;html=1;whiteSpace=wrap;connectable=0;fillColor=none;top=0;left=0;bottom=0;right=0;overflow=hidden;" parent="366" vertex="1">
                    <mxGeometry width="40" height="30" as="geometry"/>
                </mxCell>
                <mxCell id="368" value="post_id" style="shape=partialRectangle;html=1;whiteSpace=wrap;connectable=0;fillColor=none;top=0;left=0;bottom=0;right=0;align=left;spacingLeft=6;overflow=hidden;" parent="366" vertex="1">
                    <mxGeometry x="40" width="140" height="30" as="geometry"/>
                </mxCell>
                <mxCell id="369" value="" style="shape=partialRectangle;html=1;whiteSpace=wrap;collapsible=0;dropTarget=0;pointerEvents=0;fillColor=none;top=0;left=0;bottom=0;right=0;points=[[0,0.5],[1,0.5]];portConstraint=eastwest;" parent="362" vertex="1">
                    <mxGeometry y="90" width="180" height="30" as="geometry"/>
                </mxCell>
                <mxCell id="370" value="3" style="shape=partialRectangle;html=1;whiteSpace=wrap;connectable=0;fillColor=none;top=0;left=0;bottom=0;right=0;overflow=hidden;" parent="369" vertex="1">
                    <mxGeometry width="40" height="30" as="geometry"/>
                </mxCell>
                <mxCell id="371" value="recipe_category_id" style="shape=partialRectangle;html=1;whiteSpace=wrap;connectable=0;fillColor=none;top=0;left=0;bottom=0;right=0;align=left;spacingLeft=6;overflow=hidden;" parent="369" vertex="1">
                    <mxGeometry x="40" width="140" height="30" as="geometry"/>
                </mxCell>
                <mxCell id="372" value="4" style="shape=partialRectangle;html=1;whiteSpace=wrap;connectable=0;fillColor=none;top=0;left=0;bottom=0;right=0;overflow=hidden;" parent="1" vertex="1">
                    <mxGeometry x="700" y="280" width="40" height="30" as="geometry"/>
                </mxCell>
                <mxCell id="379" value="update_at" style="shape=partialRectangle;html=1;whiteSpace=wrap;connectable=0;fillColor=none;top=0;left=0;bottom=0;right=0;align=left;spacingLeft=6;overflow=hidden;" parent="1" vertex="1">
                    <mxGeometry x="740" y="305.5" width="140" height="30" as="geometry"/>
                </mxCell>
                <mxCell id="380" value="5" style="shape=partialRectangle;html=1;whiteSpace=wrap;connectable=0;fillColor=none;top=0;left=0;bottom=0;right=0;overflow=hidden;" parent="1" vertex="1">
                    <mxGeometry x="700" y="310" width="40" height="30" as="geometry"/>
                </mxCell>
                <mxCell id="384" value="update_at" style="shape=partialRectangle;html=1;whiteSpace=wrap;connectable=0;fillColor=none;top=0;left=0;bottom=0;right=0;align=left;spacingLeft=6;overflow=hidden;" parent="1" vertex="1">
                    <mxGeometry x="2020" y="310" width="140" height="28" as="geometry"/>
                </mxCell>
                <mxCell id="385" value="create_at" style="shape=partialRectangle;html=1;whiteSpace=wrap;connectable=0;fillColor=none;top=0;left=0;bottom=0;right=0;align=left;spacingLeft=6;overflow=hidden;" parent="1" vertex="1">
                    <mxGeometry x="2020" y="281" width="140" height="30" as="geometry"/>
                </mxCell>
                <mxCell id="386" value="5" style="shape=partialRectangle;html=1;whiteSpace=wrap;connectable=0;fillColor=none;top=0;left=0;bottom=0;right=0;overflow=hidden;" parent="1" vertex="1">
                    <mxGeometry x="1980" y="310" width="40" height="30" as="geometry"/>
                </mxCell>
                <mxCell id="400" value="4" style="shape=partialRectangle;html=1;whiteSpace=wrap;connectable=0;fillColor=none;top=0;left=0;bottom=0;right=0;overflow=hidden;" parent="1" vertex="1">
                    <mxGeometry x="1980" y="280" width="40" height="30" as="geometry"/>
                </mxCell>
                <mxCell id="403" value="relationships" style="shape=table;startSize=30;container=1;collapsible=0;childLayout=tableLayout;fixedRows=1;rowLines=0;fontStyle=1;align=center;rounded=0;sketch=0;fontColor=#5C5C5C;strokeColor=#006658;fillColor=#21C0A5;" parent="1" vertex="1">
                    <mxGeometry x="1980" y="161" width="180" height="320" as="geometry"/>
                </mxCell>
                <mxCell id="404" value="" style="shape=partialRectangle;html=1;whiteSpace=wrap;collapsible=0;dropTarget=0;pointerEvents=0;fillColor=none;top=0;left=0;bottom=1;right=0;points=[[0,0.5],[1,0.5]];portConstraint=eastwest;" parent="403" vertex="1">
                    <mxGeometry y="30" width="180" height="30" as="geometry"/>
                </mxCell>
                <mxCell id="405" value="1" style="shape=partialRectangle;html=1;whiteSpace=wrap;connectable=0;fillColor=none;top=0;left=0;bottom=0;right=0;overflow=hidden;" parent="404" vertex="1">
                    <mxGeometry width="40" height="30" as="geometry"/>
                </mxCell>
                <mxCell id="406" value="id" style="shape=partialRectangle;html=1;whiteSpace=wrap;connectable=0;fillColor=none;top=0;left=0;bottom=0;right=0;align=left;spacingLeft=6;overflow=hidden;" parent="404" vertex="1">
                    <mxGeometry x="40" width="140" height="30" as="geometry"/>
                </mxCell>
                <mxCell id="407" value="" style="shape=partialRectangle;html=1;whiteSpace=wrap;collapsible=0;dropTarget=0;pointerEvents=0;fillColor=none;top=0;left=0;bottom=0;right=0;points=[[0,0.5],[1,0.5]];portConstraint=eastwest;" parent="403" vertex="1">
                    <mxGeometry y="60" width="180" height="30" as="geometry"/>
                </mxCell>
                <mxCell id="408" value="2" style="shape=partialRectangle;html=1;whiteSpace=wrap;connectable=0;fillColor=none;top=0;left=0;bottom=0;right=0;overflow=hidden;" parent="407" vertex="1">
                    <mxGeometry width="40" height="30" as="geometry"/>
                </mxCell>
                <mxCell id="409" value="followeds_id" style="shape=partialRectangle;html=1;whiteSpace=wrap;connectable=0;fillColor=none;top=0;left=0;bottom=0;right=0;align=left;spacingLeft=6;overflow=hidden;" parent="407" vertex="1">
                    <mxGeometry x="40" width="140" height="30" as="geometry"/>
                </mxCell>
                <mxCell id="410" value="" style="shape=partialRectangle;html=1;whiteSpace=wrap;collapsible=0;dropTarget=0;pointerEvents=0;fillColor=none;top=0;left=0;bottom=0;right=0;points=[[0,0.5],[1,0.5]];portConstraint=eastwest;" parent="403" vertex="1">
                    <mxGeometry y="90" width="180" height="30" as="geometry"/>
                </mxCell>
                <mxCell id="411" value="3" style="shape=partialRectangle;html=1;whiteSpace=wrap;connectable=0;fillColor=none;top=0;left=0;bottom=0;right=0;overflow=hidden;" parent="410" vertex="1">
                    <mxGeometry width="40" height="30" as="geometry"/>
                </mxCell>
                <mxCell id="412" value="followers_id" style="shape=partialRectangle;html=1;whiteSpace=wrap;connectable=0;fillColor=none;top=0;left=0;bottom=0;right=0;align=left;spacingLeft=6;overflow=hidden;" parent="410" vertex="1">
                    <mxGeometry x="40" width="140" height="30" as="geometry"/>
                </mxCell>
                <mxCell id="413" value="create_at" style="shape=partialRectangle;html=1;whiteSpace=wrap;connectable=0;fillColor=none;top=0;left=0;bottom=0;right=0;align=left;spacingLeft=6;overflow=hidden;" parent="1" vertex="1">
                    <mxGeometry x="740" y="281" width="140" height="30" as="geometry"/>
                </mxCell>
                <mxCell id="415" value="Recipe_categories" style="shape=table;startSize=30;container=1;collapsible=0;childLayout=tableLayout;fixedRows=1;rowLines=0;fontStyle=1;align=center;rounded=0;sketch=0;fontColor=#5C5C5C;strokeColor=#006658;fillColor=#21C0A5;" parent="1" vertex="1">
                    <mxGeometry x="380" y="160" width="180" height="321" as="geometry"/>
                </mxCell>
                <mxCell id="416" value="" style="shape=partialRectangle;html=1;whiteSpace=wrap;collapsible=0;dropTarget=0;pointerEvents=0;fillColor=none;top=0;left=0;bottom=1;right=0;points=[[0,0.5],[1,0.5]];portConstraint=eastwest;" parent="415" vertex="1">
                    <mxGeometry y="30" width="180" height="30" as="geometry"/>
                </mxCell>
                <mxCell id="417" value="1" style="shape=partialRectangle;html=1;whiteSpace=wrap;connectable=0;fillColor=none;top=0;left=0;bottom=0;right=0;overflow=hidden;" parent="416" vertex="1">
                    <mxGeometry width="40" height="30" as="geometry"/>
                </mxCell>
                <mxCell id="418" value="id" style="shape=partialRectangle;html=1;whiteSpace=wrap;connectable=0;fillColor=none;top=0;left=0;bottom=0;right=0;align=left;spacingLeft=6;overflow=hidden;" parent="416" vertex="1">
                    <mxGeometry x="40" width="140" height="30" as="geometry"/>
                </mxCell>
                <mxCell id="419" value="" style="shape=partialRectangle;html=1;whiteSpace=wrap;collapsible=0;dropTarget=0;pointerEvents=0;fillColor=none;top=0;left=0;bottom=0;right=0;points=[[0,0.5],[1,0.5]];portConstraint=eastwest;" parent="415" vertex="1">
                    <mxGeometry y="60" width="180" height="30" as="geometry"/>
                </mxCell>
                <mxCell id="420" value="2" style="shape=partialRectangle;html=1;whiteSpace=wrap;connectable=0;fillColor=none;top=0;left=0;bottom=0;right=0;overflow=hidden;" parent="419" vertex="1">
                    <mxGeometry width="40" height="30" as="geometry"/>
                </mxCell>
                <mxCell id="421" value="post_id" style="shape=partialRectangle;html=1;whiteSpace=wrap;connectable=0;fillColor=none;top=0;left=0;bottom=0;right=0;align=left;spacingLeft=6;overflow=hidden;" parent="419" vertex="1">
                    <mxGeometry x="40" width="140" height="30" as="geometry"/>
                </mxCell>
                <mxCell id="422" value="" style="shape=partialRectangle;html=1;whiteSpace=wrap;collapsible=0;dropTarget=0;pointerEvents=0;fillColor=none;top=0;left=0;bottom=0;right=0;points=[[0,0.5],[1,0.5]];portConstraint=eastwest;" parent="415" vertex="1">
                    <mxGeometry y="90" width="180" height="30" as="geometry"/>
                </mxCell>
                <mxCell id="423" value="3" style="shape=partialRectangle;html=1;whiteSpace=wrap;connectable=0;fillColor=none;top=0;left=0;bottom=0;right=0;overflow=hidden;" parent="422" vertex="1">
                    <mxGeometry width="40" height="30" as="geometry"/>
                </mxCell>
                <mxCell id="424" value="recipe_acategory_name" style="shape=partialRectangle;html=1;whiteSpace=wrap;connectable=0;fillColor=none;top=0;left=0;bottom=0;right=0;align=left;spacingLeft=6;overflow=hidden;" parent="422" vertex="1">
                    <mxGeometry x="40" width="140" height="30" as="geometry"/>
                </mxCell>
                <mxCell id="425" value="4" style="shape=partialRectangle;html=1;whiteSpace=wrap;connectable=0;fillColor=none;top=0;left=0;bottom=0;right=0;overflow=hidden;" parent="1" vertex="1">
                    <mxGeometry x="380" y="280" width="40" height="30" as="geometry"/>
                </mxCell>
                <mxCell id="433" value="5" style="shape=partialRectangle;html=1;whiteSpace=wrap;connectable=0;fillColor=none;top=0;left=0;bottom=0;right=0;overflow=hidden;" parent="1" vertex="1">
                    <mxGeometry x="380" y="310" width="40" height="30" as="geometry"/>
                </mxCell>
                <mxCell id="435" value="create_at" style="shape=partialRectangle;html=1;whiteSpace=wrap;connectable=0;fillColor=none;top=0;left=0;bottom=0;right=0;align=left;spacingLeft=6;overflow=hidden;" parent="1" vertex="1">
                    <mxGeometry x="420" y="280" width="140" height="30" as="geometry"/>
                </mxCell>
                <mxCell id="436" value="update_at" style="shape=partialRectangle;html=1;whiteSpace=wrap;connectable=0;fillColor=none;top=0;left=0;bottom=0;right=0;align=left;spacingLeft=6;overflow=hidden;" parent="1" vertex="1">
                    <mxGeometry x="420" y="310" width="140" height="30" as="geometry"/>
                </mxCell>
                <mxCell id="501" value="Post_material_categories" style="shape=table;startSize=30;container=1;collapsible=0;childLayout=tableLayout;fixedRows=1;rowLines=0;fontStyle=1;align=center;rounded=0;sketch=0;fontColor=#5C5C5C;strokeColor=#006658;fillColor=#21C0A5;" parent="1" vertex="1">
                    <mxGeometry x="700" y="760" width="180" height="310" as="geometry"/>
                </mxCell>
                <mxCell id="502" value="" style="shape=partialRectangle;html=1;whiteSpace=wrap;collapsible=0;dropTarget=0;pointerEvents=0;fillColor=none;top=0;left=0;bottom=1;right=0;points=[[0,0.5],[1,0.5]];portConstraint=eastwest;" parent="501" vertex="1">
                    <mxGeometry y="30" width="180" height="30" as="geometry"/>
                </mxCell>
                <mxCell id="503" value="1" style="shape=partialRectangle;html=1;whiteSpace=wrap;connectable=0;fillColor=none;top=0;left=0;bottom=0;right=0;overflow=hidden;" parent="502" vertex="1">
                    <mxGeometry width="40" height="30" as="geometry"/>
                </mxCell>
                <mxCell id="504" value="id" style="shape=partialRectangle;html=1;whiteSpace=wrap;connectable=0;fillColor=none;top=0;left=0;bottom=0;right=0;align=left;spacingLeft=6;overflow=hidden;" parent="502" vertex="1">
                    <mxGeometry x="40" width="140" height="30" as="geometry"/>
                </mxCell>
                <mxCell id="505" value="" style="shape=partialRectangle;html=1;whiteSpace=wrap;collapsible=0;dropTarget=0;pointerEvents=0;fillColor=none;top=0;left=0;bottom=0;right=0;points=[[0,0.5],[1,0.5]];portConstraint=eastwest;" parent="501" vertex="1">
                    <mxGeometry y="60" width="180" height="30" as="geometry"/>
                </mxCell>
                <mxCell id="506" value="2" style="shape=partialRectangle;html=1;whiteSpace=wrap;connectable=0;fillColor=none;top=0;left=0;bottom=0;right=0;overflow=hidden;" parent="505" vertex="1">
                    <mxGeometry width="40" height="30" as="geometry"/>
                </mxCell>
                <mxCell id="507" value="post_id" style="shape=partialRectangle;html=1;whiteSpace=wrap;connectable=0;fillColor=none;top=0;left=0;bottom=0;right=0;align=left;spacingLeft=6;overflow=hidden;" parent="505" vertex="1">
                    <mxGeometry x="40" width="140" height="30" as="geometry"/>
                </mxCell>
                <mxCell id="508" value="" style="shape=partialRectangle;html=1;whiteSpace=wrap;collapsible=0;dropTarget=0;pointerEvents=0;fillColor=none;top=0;left=0;bottom=0;right=0;points=[[0,0.5],[1,0.5]];portConstraint=eastwest;" parent="501" vertex="1">
                    <mxGeometry y="90" width="180" height="30" as="geometry"/>
                </mxCell>
                <mxCell id="509" value="3" style="shape=partialRectangle;html=1;whiteSpace=wrap;connectable=0;fillColor=none;top=0;left=0;bottom=0;right=0;overflow=hidden;" parent="508" vertex="1">
                    <mxGeometry width="40" height="30" as="geometry"/>
                </mxCell>
                <mxCell id="510" value="material_category_id" style="shape=partialRectangle;html=1;whiteSpace=wrap;connectable=0;fillColor=none;top=0;left=0;bottom=0;right=0;align=left;spacingLeft=6;overflow=hidden;" parent="508" vertex="1">
                    <mxGeometry x="40" width="140" height="30" as="geometry"/>
                </mxCell>
                <mxCell id="511" value="4" style="shape=partialRectangle;html=1;whiteSpace=wrap;connectable=0;fillColor=none;top=0;left=0;bottom=0;right=0;overflow=hidden;" parent="1" vertex="1">
                    <mxGeometry x="700" y="880" width="40" height="30" as="geometry"/>
                </mxCell>
                <mxCell id="518" value="update_at" style="shape=partialRectangle;html=1;whiteSpace=wrap;connectable=0;fillColor=none;top=0;left=0;bottom=0;right=0;align=left;spacingLeft=6;overflow=hidden;" parent="1" vertex="1">
                    <mxGeometry x="740" y="910" width="140" height="30" as="geometry"/>
                </mxCell>
                <mxCell id="519" value="5" style="shape=partialRectangle;html=1;whiteSpace=wrap;connectable=0;fillColor=none;top=0;left=0;bottom=0;right=0;overflow=hidden;" parent="1" vertex="1">
                    <mxGeometry x="700" y="910" width="40" height="30" as="geometry"/>
                </mxCell>
                <mxCell id="522" value="Material_category" style="shape=table;startSize=30;container=1;collapsible=0;childLayout=tableLayout;fixedRows=1;rowLines=0;fontStyle=1;align=center;rounded=0;sketch=0;fontColor=#5C5C5C;strokeColor=#006658;fillColor=#21C0A5;" parent="1" vertex="1">
                    <mxGeometry x="1020" y="760" width="180" height="310" as="geometry"/>
                </mxCell>
                <mxCell id="523" value="" style="shape=partialRectangle;html=1;whiteSpace=wrap;collapsible=0;dropTarget=0;pointerEvents=0;fillColor=none;top=0;left=0;bottom=1;right=0;points=[[0,0.5],[1,0.5]];portConstraint=eastwest;" parent="522" vertex="1">
                    <mxGeometry y="30" width="180" height="30" as="geometry"/>
                </mxCell>
                <mxCell id="524" value="1" style="shape=partialRectangle;html=1;whiteSpace=wrap;connectable=0;fillColor=none;top=0;left=0;bottom=0;right=0;overflow=hidden;" parent="523" vertex="1">
                    <mxGeometry width="40" height="30" as="geometry"/>
                </mxCell>
                <mxCell id="525" value="id" style="shape=partialRectangle;html=1;whiteSpace=wrap;connectable=0;fillColor=none;top=0;left=0;bottom=0;right=0;align=left;spacingLeft=6;overflow=hidden;" parent="523" vertex="1">
                    <mxGeometry x="40" width="140" height="30" as="geometry"/>
                </mxCell>
                <mxCell id="526" value="" style="shape=partialRectangle;html=1;whiteSpace=wrap;collapsible=0;dropTarget=0;pointerEvents=0;fillColor=none;top=0;left=0;bottom=0;right=0;points=[[0,0.5],[1,0.5]];portConstraint=eastwest;" parent="522" vertex="1">
                    <mxGeometry y="60" width="180" height="30" as="geometry"/>
                </mxCell>
                <mxCell id="527" value="2" style="shape=partialRectangle;html=1;whiteSpace=wrap;connectable=0;fillColor=none;top=0;left=0;bottom=0;right=0;overflow=hidden;" parent="526" vertex="1">
                    <mxGeometry width="40" height="30" as="geometry"/>
                </mxCell>
                <mxCell id="528" value="post_id" style="shape=partialRectangle;html=1;whiteSpace=wrap;connectable=0;fillColor=none;top=0;left=0;bottom=0;right=0;align=left;spacingLeft=6;overflow=hidden;" parent="526" vertex="1">
                    <mxGeometry x="40" width="140" height="30" as="geometry"/>
                </mxCell>
                <mxCell id="529" value="" style="shape=partialRectangle;html=1;whiteSpace=wrap;collapsible=0;dropTarget=0;pointerEvents=0;fillColor=none;top=0;left=0;bottom=0;right=0;points=[[0,0.5],[1,0.5]];portConstraint=eastwest;" parent="522" vertex="1">
                    <mxGeometry y="90" width="180" height="30" as="geometry"/>
                </mxCell>
                <mxCell id="530" value="3" style="shape=partialRectangle;html=1;whiteSpace=wrap;connectable=0;fillColor=none;top=0;left=0;bottom=0;right=0;overflow=hidden;" parent="529" vertex="1">
                    <mxGeometry width="40" height="30" as="geometry"/>
                </mxCell>
                <mxCell id="531" value="&lt;font style=&quot;font-size: 11px&quot;&gt;material_category_name&lt;/font&gt;" style="shape=partialRectangle;html=1;whiteSpace=wrap;connectable=0;fillColor=none;top=0;left=0;bottom=0;right=0;align=left;spacingLeft=6;overflow=hidden;" parent="529" vertex="1">
                    <mxGeometry x="40" width="140" height="30" as="geometry"/>
                </mxCell>
                <mxCell id="532" value="4" style="shape=partialRectangle;html=1;whiteSpace=wrap;connectable=0;fillColor=none;top=0;left=0;bottom=0;right=0;overflow=hidden;" parent="1" vertex="1">
                    <mxGeometry x="1020" y="880" width="40" height="30" as="geometry"/>
                </mxCell>
                <mxCell id="539" value="update_at" style="shape=partialRectangle;html=1;whiteSpace=wrap;connectable=0;fillColor=none;top=0;left=0;bottom=0;right=0;align=left;spacingLeft=6;overflow=hidden;" parent="1" vertex="1">
                    <mxGeometry x="1060" y="910" width="140" height="30" as="geometry"/>
                </mxCell>
                <mxCell id="540" value="5" style="shape=partialRectangle;html=1;whiteSpace=wrap;connectable=0;fillColor=none;top=0;left=0;bottom=0;right=0;overflow=hidden;" parent="1" vertex="1">
                    <mxGeometry x="1020" y="910" width="40" height="30" as="geometry"/>
                </mxCell>
                <mxCell id="543" value="Material_relationships" style="shape=table;startSize=30;container=1;collapsible=0;childLayout=tableLayout;fixedRows=1;rowLines=0;fontStyle=1;align=center;rounded=0;sketch=0;fontColor=#5C5C5C;strokeColor=#006658;fillColor=#21C0A5;" parent="1" vertex="1">
                    <mxGeometry x="1340" y="760" width="180" height="310" as="geometry"/>
                </mxCell>
                <mxCell id="544" value="" style="shape=partialRectangle;html=1;whiteSpace=wrap;collapsible=0;dropTarget=0;pointerEvents=0;fillColor=none;top=0;left=0;bottom=1;right=0;points=[[0,0.5],[1,0.5]];portConstraint=eastwest;" parent="543" vertex="1">
                    <mxGeometry y="30" width="180" height="30" as="geometry"/>
                </mxCell>
                <mxCell id="545" value="1" style="shape=partialRectangle;html=1;whiteSpace=wrap;connectable=0;fillColor=none;top=0;left=0;bottom=0;right=0;overflow=hidden;" parent="544" vertex="1">
                    <mxGeometry width="40" height="30" as="geometry"/>
                </mxCell>
                <mxCell id="546" value="id" style="shape=partialRectangle;html=1;whiteSpace=wrap;connectable=0;fillColor=none;top=0;left=0;bottom=0;right=0;align=left;spacingLeft=6;overflow=hidden;" parent="544" vertex="1">
                    <mxGeometry x="40" width="140" height="30" as="geometry"/>
                </mxCell>
                <mxCell id="547" value="" style="shape=partialRectangle;html=1;whiteSpace=wrap;collapsible=0;dropTarget=0;pointerEvents=0;fillColor=none;top=0;left=0;bottom=0;right=0;points=[[0,0.5],[1,0.5]];portConstraint=eastwest;" parent="543" vertex="1">
                    <mxGeometry y="60" width="180" height="30" as="geometry"/>
                </mxCell>
                <mxCell id="548" value="2" style="shape=partialRectangle;html=1;whiteSpace=wrap;connectable=0;fillColor=none;top=0;left=0;bottom=0;right=0;overflow=hidden;" parent="547" vertex="1">
                    <mxGeometry width="40" height="30" as="geometry"/>
                </mxCell>
                <mxCell id="549" value="post_id" style="shape=partialRectangle;html=1;whiteSpace=wrap;connectable=0;fillColor=none;top=0;left=0;bottom=0;right=0;align=left;spacingLeft=6;overflow=hidden;" parent="547" vertex="1">
                    <mxGeometry x="40" width="140" height="30" as="geometry"/>
                </mxCell>
                <mxCell id="550" value="" style="shape=partialRectangle;html=1;whiteSpace=wrap;collapsible=0;dropTarget=0;pointerEvents=0;fillColor=none;top=0;left=0;bottom=0;right=0;points=[[0,0.5],[1,0.5]];portConstraint=eastwest;" parent="543" vertex="1">
                    <mxGeometry y="90" width="180" height="30" as="geometry"/>
                </mxCell>
                <mxCell id="551" value="3" style="shape=partialRectangle;html=1;whiteSpace=wrap;connectable=0;fillColor=none;top=0;left=0;bottom=0;right=0;overflow=hidden;" parent="550" vertex="1">
                    <mxGeometry width="40" height="30" as="geometry"/>
                </mxCell>
                <mxCell id="552" value="&lt;font style=&quot;font-size: 11px&quot;&gt;material_id&lt;/font&gt;" style="shape=partialRectangle;html=1;whiteSpace=wrap;connectable=0;fillColor=none;top=0;left=0;bottom=0;right=0;align=left;spacingLeft=6;overflow=hidden;" parent="550" vertex="1">
                    <mxGeometry x="40" width="140" height="30" as="geometry"/>
                </mxCell>
                <mxCell id="553" value="4" style="shape=partialRectangle;html=1;whiteSpace=wrap;connectable=0;fillColor=none;top=0;left=0;bottom=0;right=0;overflow=hidden;" parent="1" vertex="1">
                    <mxGeometry x="1340" y="880" width="40" height="30" as="geometry"/>
                </mxCell>
                <mxCell id="560" value="update_at" style="shape=partialRectangle;html=1;whiteSpace=wrap;connectable=0;fillColor=none;top=0;left=0;bottom=0;right=0;align=left;spacingLeft=6;overflow=hidden;" parent="1" vertex="1">
                    <mxGeometry x="1380" y="910" width="140" height="30" as="geometry"/>
                </mxCell>
                <mxCell id="561" value="5" style="shape=partialRectangle;html=1;whiteSpace=wrap;connectable=0;fillColor=none;top=0;left=0;bottom=0;right=0;overflow=hidden;" parent="1" vertex="1">
                    <mxGeometry x="1340" y="910" width="40" height="30" as="geometry"/>
                </mxCell>
                <mxCell id="563" value="create_at" style="shape=partialRectangle;html=1;whiteSpace=wrap;connectable=0;fillColor=none;top=0;left=0;bottom=0;right=0;align=left;spacingLeft=6;overflow=hidden;" parent="1" vertex="1">
                    <mxGeometry x="740" y="880" width="140" height="30" as="geometry"/>
                </mxCell>
                <mxCell id="564" value="create_at" style="shape=partialRectangle;html=1;whiteSpace=wrap;connectable=0;fillColor=none;top=0;left=0;bottom=0;right=0;align=left;spacingLeft=6;overflow=hidden;" parent="1" vertex="1">
                    <mxGeometry x="1060" y="880" width="140" height="30" as="geometry"/>
                </mxCell>
                <mxCell id="565" value="create_at" style="shape=partialRectangle;html=1;whiteSpace=wrap;connectable=0;fillColor=none;top=0;left=0;bottom=0;right=0;align=left;spacingLeft=6;overflow=hidden;" parent="1" vertex="1">
                    <mxGeometry x="1380" y="880" width="140" height="30" as="geometry"/>
                </mxCell>
                <mxCell id="616" value="" style="fontSize=12;html=1;endArrow=ERoneToMany;fontColor=#5C5C5C;startSize=30;strokeColor=#006658;fillColor=#21C0A5;" parent="1" edge="1">
                    <mxGeometry width="100" height="100" relative="1" as="geometry">
                        <mxPoint x="1020" y="279.2" as="sourcePoint"/>
                        <mxPoint x="880" y="279.2" as="targetPoint"/>
                    </mxGeometry>
                </mxCell>
                <mxCell id="619" value="" style="fontSize=12;html=1;endArrow=ERoneToMany;fontColor=#5C5C5C;startSize=30;strokeColor=#006658;fillColor=#21C0A5;" parent="1" edge="1">
                    <mxGeometry width="100" height="100" relative="1" as="geometry">
                        <mxPoint x="1660" y="281" as="sourcePoint"/>
                        <mxPoint x="1520" y="281" as="targetPoint"/>
                    </mxGeometry>
                </mxCell>
                <mxCell id="620" value="" style="fontSize=12;html=1;endArrow=ERoneToMany;fontColor=#5C5C5C;startSize=30;strokeColor=#006658;fillColor=#21C0A5;" parent="1" edge="1">
                    <mxGeometry width="100" height="100" relative="1" as="geometry">
                        <mxPoint x="1200" y="280" as="sourcePoint"/>
                        <mxPoint x="1340" y="280" as="targetPoint"/>
                    </mxGeometry>
                </mxCell>
                <mxCell id="621" value="" style="fontSize=12;html=1;endArrow=ERoneToMany;fontColor=#5C5C5C;startSize=30;strokeColor=#006658;fillColor=#21C0A5;" parent="1" edge="1">
                    <mxGeometry width="100" height="100" relative="1" as="geometry">
                        <mxPoint x="1840" y="281" as="sourcePoint"/>
                        <mxPoint x="1980" y="281" as="targetPoint"/>
                    </mxGeometry>
                </mxCell>
                <mxCell id="622" value="" style="fontSize=12;html=1;endArrow=ERoneToMany;fontColor=#5C5C5C;startSize=30;strokeColor=#006658;fillColor=#21C0A5;" parent="1" edge="1">
                    <mxGeometry width="100" height="100" relative="1" as="geometry">
                        <mxPoint x="560" y="280" as="sourcePoint"/>
                        <mxPoint x="700" y="280" as="targetPoint"/>
                    </mxGeometry>
                </mxCell>
                <mxCell id="624" value="" style="fontSize=12;html=1;endArrow=ERoneToMany;fontColor=#5C5C5C;startSize=30;strokeColor=#006658;fillColor=#21C0A5;edgeStyle=elbowEdgeStyle;entryX=0.5;entryY=0;entryDx=0;entryDy=0;elbow=vertical;" parent="1" target="501" edge="1">
                    <mxGeometry width="100" height="100" relative="1" as="geometry">
                        <mxPoint x="1120" y="640" as="sourcePoint"/>
                        <mxPoint x="780" y="800" as="targetPoint"/>
                        <Array as="points">
                            <mxPoint x="950" y="700"/>
                            <mxPoint x="1050" y="800"/>
                        </Array>
                    </mxGeometry>
                </mxCell>
                <mxCell id="626" value="" style="fontSize=12;html=1;endArrow=ERoneToMany;fontColor=#5C5C5C;startSize=30;strokeColor=#006658;fillColor=#21C0A5;" parent="1" edge="1">
                    <mxGeometry width="100" height="100" relative="1" as="geometry">
                        <mxPoint x="1020" y="880" as="sourcePoint"/>
                        <mxPoint x="880" y="880" as="targetPoint"/>
                    </mxGeometry>
                </mxCell>
                <mxCell id="628" value="Materials" style="shape=table;startSize=30;container=1;collapsible=0;childLayout=tableLayout;fixedRows=1;rowLines=0;fontStyle=1;align=center;rounded=0;sketch=0;fontColor=#5C5C5C;strokeColor=#006658;fillColor=#21C0A5;" parent="1" vertex="1">
                    <mxGeometry x="1660" y="760" width="180" height="310" as="geometry"/>
                </mxCell>
                <mxCell id="629" value="" style="shape=partialRectangle;html=1;whiteSpace=wrap;collapsible=0;dropTarget=0;pointerEvents=0;fillColor=none;top=0;left=0;bottom=1;right=0;points=[[0,0.5],[1,0.5]];portConstraint=eastwest;" parent="628" vertex="1">
                    <mxGeometry y="30" width="180" height="30" as="geometry"/>
                </mxCell>
                <mxCell id="630" value="1" style="shape=partialRectangle;html=1;whiteSpace=wrap;connectable=0;fillColor=none;top=0;left=0;bottom=0;right=0;overflow=hidden;" parent="629" vertex="1">
                    <mxGeometry width="40" height="30" as="geometry"/>
                </mxCell>
                <mxCell id="631" value="id" style="shape=partialRectangle;html=1;whiteSpace=wrap;connectable=0;fillColor=none;top=0;left=0;bottom=0;right=0;align=left;spacingLeft=6;overflow=hidden;" parent="629" vertex="1">
                    <mxGeometry x="40" width="140" height="30" as="geometry"/>
                </mxCell>
                <mxCell id="632" value="" style="shape=partialRectangle;html=1;whiteSpace=wrap;collapsible=0;dropTarget=0;pointerEvents=0;fillColor=none;top=0;left=0;bottom=0;right=0;points=[[0,0.5],[1,0.5]];portConstraint=eastwest;" parent="628" vertex="1">
                    <mxGeometry y="60" width="180" height="30" as="geometry"/>
                </mxCell>
                <mxCell id="633" value="2" style="shape=partialRectangle;html=1;whiteSpace=wrap;connectable=0;fillColor=none;top=0;left=0;bottom=0;right=0;overflow=hidden;" parent="632" vertex="1">
                    <mxGeometry width="40" height="30" as="geometry"/>
                </mxCell>
                <mxCell id="634" value="post_id" style="shape=partialRectangle;html=1;whiteSpace=wrap;connectable=0;fillColor=none;top=0;left=0;bottom=0;right=0;align=left;spacingLeft=6;overflow=hidden;" parent="632" vertex="1">
                    <mxGeometry x="40" width="140" height="30" as="geometry"/>
                </mxCell>
                <mxCell id="635" value="" style="shape=partialRectangle;html=1;whiteSpace=wrap;collapsible=0;dropTarget=0;pointerEvents=0;fillColor=none;top=0;left=0;bottom=0;right=0;points=[[0,0.5],[1,0.5]];portConstraint=eastwest;" parent="628" vertex="1">
                    <mxGeometry y="90" width="180" height="30" as="geometry"/>
                </mxCell>
                <mxCell id="636" value="3" style="shape=partialRectangle;html=1;whiteSpace=wrap;connectable=0;fillColor=none;top=0;left=0;bottom=0;right=0;overflow=hidden;" parent="635" vertex="1">
                    <mxGeometry width="40" height="30" as="geometry"/>
                </mxCell>
                <mxCell id="637" value="material_category_id" style="shape=partialRectangle;html=1;whiteSpace=wrap;connectable=0;fillColor=none;top=0;left=0;bottom=0;right=0;align=left;spacingLeft=6;overflow=hidden;" parent="635" vertex="1">
                    <mxGeometry x="40" width="140" height="30" as="geometry"/>
                </mxCell>
                <mxCell id="638" value="4" style="shape=partialRectangle;html=1;whiteSpace=wrap;connectable=0;fillColor=none;top=0;left=0;bottom=0;right=0;overflow=hidden;" parent="1" vertex="1">
                    <mxGeometry x="1660" y="880" width="40" height="30" as="geometry"/>
                </mxCell>
                <mxCell id="639" value="6" style="shape=partialRectangle;html=1;whiteSpace=wrap;connectable=0;fillColor=none;top=0;left=0;bottom=0;right=0;overflow=hidden;" parent="1" vertex="1">
                    <mxGeometry x="1660" y="940" width="40" height="30" as="geometry"/>
                </mxCell>
                <mxCell id="640" value="material_name" style="shape=partialRectangle;html=1;whiteSpace=wrap;connectable=0;fillColor=none;top=0;left=0;bottom=0;right=0;align=left;spacingLeft=6;overflow=hidden;" parent="1" vertex="1">
                    <mxGeometry x="1700" y="880" width="140" height="30" as="geometry"/>
                </mxCell>
                <mxCell id="646" value="5" style="shape=partialRectangle;html=1;whiteSpace=wrap;connectable=0;fillColor=none;top=0;left=0;bottom=0;right=0;overflow=hidden;" parent="1" vertex="1">
                    <mxGeometry x="1660" y="910" width="40" height="30" as="geometry"/>
                </mxCell>
                <mxCell id="648" value="" style="fontSize=12;html=1;endArrow=ERoneToMany;fontColor=#5C5C5C;startSize=30;strokeColor=#006658;fillColor=#21C0A5;" parent="1" edge="1">
                    <mxGeometry width="100" height="100" relative="1" as="geometry">
                        <mxPoint x="1660" y="879.2" as="sourcePoint"/>
                        <mxPoint x="1520" y="879.2" as="targetPoint"/>
                    </mxGeometry>
                </mxCell>
                <mxCell id="649" value="" style="fontSize=12;html=1;endArrow=ERoneToMany;fontColor=#5C5C5C;startSize=30;strokeColor=#006658;fillColor=#21C0A5;" parent="1" edge="1">
                    <mxGeometry width="100" height="100" relative="1" as="geometry">
                        <mxPoint x="1200" y="879.2" as="sourcePoint"/>
                        <mxPoint x="1340" y="879.2" as="targetPoint"/>
                    </mxGeometry>
                </mxCell>
                <mxCell id="650" value="create_at" style="shape=partialRectangle;html=1;whiteSpace=wrap;connectable=0;fillColor=none;top=0;left=0;bottom=0;right=0;align=left;spacingLeft=6;overflow=hidden;" parent="1" vertex="1">
                    <mxGeometry x="1700" y="910" width="140" height="30" as="geometry"/>
                </mxCell>
                <mxCell id="651" value="update_at" style="shape=partialRectangle;html=1;whiteSpace=wrap;connectable=0;fillColor=none;top=0;left=0;bottom=0;right=0;align=left;spacingLeft=6;overflow=hidden;" parent="1" vertex="1">
                    <mxGeometry x="1700" y="940" width="140" height="30" as="geometry"/>
                </mxCell>
                <mxCell id="653" value="update_at" style="shape=partialRectangle;html=1;whiteSpace=wrap;connectable=0;fillColor=none;top=0;left=0;bottom=0;right=0;align=left;spacingLeft=6;overflow=hidden;" parent="1" vertex="1">
                    <mxGeometry x="1060" y="579" width="140" height="30" as="geometry"/>
                </mxCell>
                <mxCell id="654" value="material_category_id" style="shape=partialRectangle;html=1;whiteSpace=wrap;connectable=0;fillColor=none;top=0;left=0;bottom=0;right=0;align=left;spacingLeft=6;overflow=hidden;" parent="1" vertex="1">
                    <mxGeometry x="1060" y="280" width="140" height="30" as="geometry"/>
                </mxCell>
                <mxCell id="697" value="10" style="shape=partialRectangle;html=1;whiteSpace=wrap;connectable=0;fillColor=none;top=0;left=0;bottom=0;right=0;overflow=hidden;" parent="1" vertex="1">
                    <mxGeometry x="1660" y="459" width="40" height="30" as="geometry"/>
                </mxCell>
                <mxCell id="698" value="admin" style="shape=partialRectangle;html=1;whiteSpace=wrap;connectable=0;fillColor=none;top=0;left=0;bottom=0;right=0;align=left;spacingLeft=6;overflow=hidden;" parent="1" vertex="1">
                    <mxGeometry x="1700" y="459" width="140" height="30" as="geometry"/>
                </mxCell>
                <mxCell id="700" value="Comments" style="shape=table;startSize=30;container=1;collapsible=0;childLayout=tableLayout;fixedRows=1;rowLines=0;fontStyle=1;align=center;rounded=0;sketch=0;fontColor=#5C5C5C;strokeColor=#006658;fillColor=#21C0A5;" vertex="1" parent="1">
                    <mxGeometry x="1980" y="760" width="180" height="310" as="geometry"/>
                </mxCell>
                <mxCell id="701" value="" style="shape=partialRectangle;html=1;whiteSpace=wrap;collapsible=0;dropTarget=0;pointerEvents=0;fillColor=none;top=0;left=0;bottom=1;right=0;points=[[0,0.5],[1,0.5]];portConstraint=eastwest;" vertex="1" parent="700">
                    <mxGeometry y="30" width="180" height="30" as="geometry"/>
                </mxCell>
                <mxCell id="702" value="1" style="shape=partialRectangle;html=1;whiteSpace=wrap;connectable=0;fillColor=none;top=0;left=0;bottom=0;right=0;overflow=hidden;" vertex="1" parent="701">
                    <mxGeometry width="40" height="30" as="geometry"/>
                </mxCell>
                <mxCell id="703" value="id" style="shape=partialRectangle;html=1;whiteSpace=wrap;connectable=0;fillColor=none;top=0;left=0;bottom=0;right=0;align=left;spacingLeft=6;overflow=hidden;" vertex="1" parent="701">
                    <mxGeometry x="40" width="140" height="30" as="geometry"/>
                </mxCell>
                <mxCell id="704" value="" style="shape=partialRectangle;html=1;whiteSpace=wrap;collapsible=0;dropTarget=0;pointerEvents=0;fillColor=none;top=0;left=0;bottom=0;right=0;points=[[0,0.5],[1,0.5]];portConstraint=eastwest;" vertex="1" parent="700">
                    <mxGeometry y="60" width="180" height="30" as="geometry"/>
                </mxCell>
                <mxCell id="705" value="2" style="shape=partialRectangle;html=1;whiteSpace=wrap;connectable=0;fillColor=none;top=0;left=0;bottom=0;right=0;overflow=hidden;" vertex="1" parent="704">
                    <mxGeometry width="40" height="30" as="geometry"/>
                </mxCell>
                <mxCell id="706" value="post_id" style="shape=partialRectangle;html=1;whiteSpace=wrap;connectable=0;fillColor=none;top=0;left=0;bottom=0;right=0;align=left;spacingLeft=6;overflow=hidden;" vertex="1" parent="704">
                    <mxGeometry x="40" width="140" height="30" as="geometry"/>
                </mxCell>
                <mxCell id="707" value="" style="shape=partialRectangle;html=1;whiteSpace=wrap;collapsible=0;dropTarget=0;pointerEvents=0;fillColor=none;top=0;left=0;bottom=0;right=0;points=[[0,0.5],[1,0.5]];portConstraint=eastwest;" vertex="1" parent="700">
                    <mxGeometry y="90" width="180" height="30" as="geometry"/>
                </mxCell>
                <mxCell id="708" value="3" style="shape=partialRectangle;html=1;whiteSpace=wrap;connectable=0;fillColor=none;top=0;left=0;bottom=0;right=0;overflow=hidden;" vertex="1" parent="707">
                    <mxGeometry width="40" height="30" as="geometry"/>
                </mxCell>
                <mxCell id="709" value="comment" style="shape=partialRectangle;html=1;whiteSpace=wrap;connectable=0;fillColor=none;top=0;left=0;bottom=0;right=0;align=left;spacingLeft=6;overflow=hidden;" vertex="1" parent="707">
                    <mxGeometry x="40" width="140" height="30" as="geometry"/>
                </mxCell>
                <mxCell id="710" value="4" style="shape=partialRectangle;html=1;whiteSpace=wrap;connectable=0;fillColor=none;top=0;left=0;bottom=0;right=0;overflow=hidden;" vertex="1" parent="1">
                    <mxGeometry x="1980" y="880" width="40" height="30" as="geometry"/>
                </mxCell>
                <mxCell id="717" value="update_at" style="shape=partialRectangle;html=1;whiteSpace=wrap;connectable=0;fillColor=none;top=0;left=0;bottom=0;right=0;align=left;spacingLeft=6;overflow=hidden;" vertex="1" parent="1">
                    <mxGeometry x="2020" y="910" width="140" height="30" as="geometry"/>
                </mxCell>
                <mxCell id="718" value="5" style="shape=partialRectangle;html=1;whiteSpace=wrap;connectable=0;fillColor=none;top=0;left=0;bottom=0;right=0;overflow=hidden;" vertex="1" parent="1">
                    <mxGeometry x="1980" y="910" width="40" height="30" as="geometry"/>
                </mxCell>
                <mxCell id="720" value="" style="fontSize=12;html=1;endArrow=ERoneToMany;fontColor=#5C5C5C;startSize=30;strokeColor=#006658;fillColor=#21C0A5;entryX=0.558;entryY=-0.009;entryDx=0;entryDy=0;entryPerimeter=0;" edge="1" parent="1" target="700">
                    <mxGeometry width="100" height="100" relative="1" as="geometry">
                        <mxPoint x="1200" y="560" as="sourcePoint"/>
                        <mxPoint x="2080" y="560" as="targetPoint"/>
                        <Array as="points">
                            <mxPoint x="2080" y="560"/>
                        </Array>
                    </mxGeometry>
                </mxCell>
                <mxCell id="721" value="create_at" style="shape=partialRectangle;html=1;whiteSpace=wrap;connectable=0;fillColor=none;top=0;left=0;bottom=0;right=0;align=left;spacingLeft=6;overflow=hidden;" vertex="1" parent="1">
                    <mxGeometry x="2020" y="880" width="140" height="30" as="geometry"/>
                </mxCell>
            </root>
        </mxGraphModel>
    </diagram>
</mxfile>